<?xml version="1.0" encoding="utf-8"?>
<!-- Generator: Adobe Illustrator 26.3.1, SVG Export Plug-In . SVG Version: 6.00 Build 0)  -->
<svg version="1.1" id="Layer_1" xmlns="http://www.w3.org/2000/svg" xmlns:xlink="http://www.w3.org/1999/xlink" x="0px" y="0px"
	 viewBox="0 0 39.5 42.4" style="enable-background:new 0 0 39.5 42.4;" xml:space="preserve">
<style type="text/css">
	.st0{fill:#FFFFFF;}
</style>
<g id="Layer_2_00000183968165823371479920000011649216899125395100_">
</g>
<g id="Layer_1_00000026126070591743933570000010149970555723515828_">
	<path class="st0" d="M37.5,38L27.3,27.7c3-2.9,4.8-6.9,4.8-11.3c0-8.7-7-15.7-15.7-15.7S0.7,7.7,0.7,16.4s7,15.7,15.7,15.7
		c2.8,0,5.5-0.8,7.8-2.1l10.6,10.6c0.4,0.4,0.9,0.6,1.3,0.6s1-0.2,1.3-0.6C38.3,39.9,38.3,38.7,37.5,38z M21.9,27.7
		c-1.6,0.8-3.5,1.2-5.4,1.2C9.5,29,3.8,23.3,3.8,16.4S9.5,3.8,16.4,3.8S29,9.5,29,16.4c0,3.6-1.5,6.8-3.9,9.1
		C24.1,26.4,23,27.1,21.9,27.7z"/>
</g>
</svg>
